<?xml version="1.0" encoding="UTF-8"?>
<svg id="Layer_2" xmlns="http://www.w3.org/2000/svg" viewBox="0 0 112.65 116.36">
  <defs>
    <style>
      .cls-1 {
        fill: #231f20;
      }
    </style>
  </defs>
  <g id="Layer_1-2" data-name="Layer_1">
    <g>
      <path class="cls-1" d="M59.28,3.57c-2.14-2.06-5.55-2.1-8.1-.83-2.62,1.26-4.32,3.88-5.23,6.57-1.93,5.58-.96,11.52.76,17.02,1.88,6.41-3.28,11.54-9.35,12.36-1.42.26-2.87.53-4.04,1.37-3.32,2.68-5.02,7.22-6.04,11.27.96-4.13,2.51-8.69,5.91-11.46,1.21-.88,2.71-1.17,4.13-1.44,5.9-.87,10.88-5.79,9.02-12.01-1.69-5.54-2.61-11.59-.62-17.2.95-2.73,2.7-5.4,5.4-6.66,2.61-1.23,6.07-1.12,8.18,1.01h0Z"/>
      <path class="cls-1" d="M48.07,7.41c.33-3.46,4.5-5.19,7.45-5.96,2.69-.64,4.91,1.49,5.94,3.77,2.75,5.27,2.17,12.09-1.34,16.87-1.45,1.97-3.7,4.09-6.37,3.57-2.62-.53-4.19-3-5.27-5.22-1.89-3.49-4.04-8.59-.6-11.85,3.46-2.97,8.99-1.18,11,2.64,1.43,2.53,2.87,7.23.99,9.79-1.88,2.12-5.23-1.08-6.43-2.67-1.06-1.46-.86-3.46,0-4.95,1.2-2.19,3.02-4.14,3.29-6.7.72-6.17-5.96-8.87-9.24-3.19-4.5,7.45-1.25,17.61,6.66,21.18,1.5.73,3.16,1.03,4.78,1.62,3.79,1.19,4.27,5.22,3.99,8.62,0,0,0,.13,0,.13l-.13.03c-2.61.58-5-1.77-5.33-4.24-.73-5.15,3.8-8.95,4.41-13.81.83-4.77-1.52-10.02-6.06-11.98-4.54-2.25-9.95.12-12.53,4.21-2.81,4.06-2.87,9.35-1.72,14,.74,3.6,2.69,6.81,3.52,10.39.51,2.39.02,5.22-2.07,6.71-3.03,2.31-7.09,1.73-10.51,2.9-7.42,2.73-8.59,11.7-8.74,18.61.11-6.94,1.25-15.94,8.7-18.73,3.43-1.2,7.44-.63,10.44-2.93,2.02-1.48,2.48-4.2,1.98-6.53-.84-3.56-2.79-6.77-3.54-10.38-1.18-4.71-1.12-10.07,1.73-14.2,4.6-7.14,14.18-6.89,18.08.74,2.35,4.7.89,9.78-1.66,14.04-1.09,2.11-2.06,4.48-1.69,6.89.3,2.28,2.53,4.49,4.91,3.95,0,0-.14.16-.14.16.1-2.42.18-5.21-1.67-7.01-1.9-1.74-4.64-1.72-6.9-2.87-4.67-2.15-8.15-6.73-8.78-11.85-.6-4.6.92-11.5,5.91-13.06,1.74-.43,3.57.39,4.67,1.74,2.38,2.8,1.25,6.9-.74,9.56-3.43,4.53-2.36,7.3,2.44,9.87.74.32,1.63.16,2.15-.46,1.78-2.47.36-7.01-1-9.45-.85-1.42-2.06-2.67-3.57-3.36-2.94-1.39-7.25-.54-8.38,2.8-1.18,3.28.52,6.62,1.99,9.53.75,1.49,1.58,3,2.9,4.04,4.74,3.73,9.38-2.68,10.67-6.87,1.03-3.19,1.09-6.71.08-9.92-.93-3-3.1-6.88-6.8-6.09-2.93.75-7.11,2.47-7.46,5.9h0Z"/>
      <path class="cls-1" d="M56.71,25.45c-1.37,6.36,2.46,13.41,8.6,15.61,2.02.75,4.16,1.08,6.28,1.46,7.95,1.27,11.58,4.18,12.31,12.43,1.13,10.71,6.08,20.95,13.86,28.4,2.27,2.06,4.89,4.81,8.24,4.19,3.16-.58,5.54-4.21,4.09-7.26-.84-1.94-2.81-3.42-4.95-3.43l.09-.1.26,2.75-.09-.08,3.79.11s.77.02.77.02c-.91.27-1.93.36-2.74-.22-2.89-1.91-1.27-5.71,1.99-5.61,2.19.05,3.52,2.4,3.42,4.39-.1,2.81-2.23,4.9-4.07,6.75-.85.93-1.76,2.1-1.62,3.42.07,1.23,1.36,2.59,2.48,2.18,2.46-2.12.95-6.15-2.29-6.14-1.63,2.22-5.73,3.26-8.72,2.55-3.18-.6-5.86-2.75-7.72-5.3-3.83-5.2-4.52-11.8-6.09-17.87-1.59-6.1-4.31-11.89-7.96-17.02-1.81-2.58-3.89-4.96-6.14-7.16-1.68-1.52-3.36-3.52-5.75-3.64-2.59,0-3.19,3.19-2.53,5.21,1.36,4.63,5.49,7.56,9.3,10.2,14.36,8.91,9.63,20.22,13.51,33.78.93,2.99,2.42,5.87,4.76,7.98,4.63,4.27,12.51,4.33,17.21.12,4.7-4.15,5.8-11.98,2.03-17.09-1.8-2.63-5.67-3.8-7.9-1.06-1.03,1.24-.74,3.07.3,4.22,1.5,1.85,3.96,2.57,5.69,4.19,2.02,1.69,1.95,4.63.03,6.37-5.17,4.65-12.72-1.62-16.2-5.72-4.17-4.88-5.91-11.3-6.03-17.62-.2-6.28-.41-12.77-3.26-18.51-2.68-5.67-7.87-10.41-14.19-11.43-3.1-.55-6.33-.48-9.35-1.48-2.9-1-5.87-3.32-6.01-6.61.14,3.29,3.11,5.61,6.01,6.6,3.02,1,6.24.92,9.35,1.46,6.34,1,11.55,5.75,14.25,11.43,2.87,5.74,3.09,12.25,3.3,18.53.14,6.31,1.87,12.68,6.04,17.54,3.43,4.04,10.9,10.25,15.98,5.69,2.8-2.82,1.14-5.85-1.93-7.51-1.34-.8-2.79-1.57-3.82-2.82-2.67-3.02.51-6.74,4.03-6.07,1.6.31,2.94,1.39,3.9,2.65,3.85,5.21,2.75,13.15-2.04,17.41-4.8,4.3-12.81,4.26-17.56-.1-2.39-2.14-3.91-5.08-4.85-8.1-3.9-13.44.81-24.82-13.43-33.57-3.83-2.65-8.09-5.67-9.46-10.4-.75-2.24.04-5.74,2.91-5.71,2.52.11,4.3,2.2,6.01,3.76,2.27,2.22,4.35,4.63,6.17,7.22,3.67,5.17,6.4,11.01,7.99,17.15.79,3.07,1.34,6.19,2.17,9.23,1.53,5.85,4.96,12.42,11.38,13.75,3.1.66,6.52-.2,8.66-2.54,1.54-.02,3.01.99,3.55,2.43.53,1.45.07,3.19-1.12,4.17-.7.27-1.49-.01-1.98-.51-2.87-3.23,1.84-5.98,3.47-8.41,1.56-2.04,2.04-5.32-.08-7.13-1.49-1.32-4.15-.62-4.89,1.21-.77,1.84,1.14,4.14,3.09,3.71,0,0,.02.19.02.19l-3.79-.12h-.08s0-.08,0-.08l-.26-2.75v-.1s.09,0,.09,0c2.22.02,4.24,1.55,5.1,3.55,1.48,3.13-.96,6.89-4.22,7.47-3.4.63-6.08-2.16-8.36-4.24-6.21-5.99-10.67-13.76-12.73-22.13-1.18-4.14-.86-8.64-2.63-12.6-1.88-4.11-6.61-5.47-10.72-6.15-3.15-.57-6.46-1.08-9.15-2.96-4.42-3.07-6.87-8.86-5.72-14.16h0Z"/>
      <path class="cls-1" d="M38.52,49.39c-4.58-.07-7.83,4.21-8.92,8.27-1.09,4.26-.46,8.68-.61,13.04-.1,4.37-1.27,8.77-3.7,12.44-4.54,7.5-16.49,10.67-22.55,3.26-2.87-3.31-3.84-8.57-1.21-12.31,2.48-3.68,7.48-5.54,11.73-4.04,3.08,1.1,5.46,3.87,8.88,3.74,1.05-.03,2.12-.39,2.82-1.17,0,0-.04.18-.04.18-.64-1.72-2.96-1.82-4.4-1.1-2.72,1.5-3.09,4.89-5.02,7.23-1.58,2.14-4.38,2.97-6.52,1.08-1.43-1.14-2.41-2.67-3.9-3.7-.49-.32-1.01-.56-1.57-.68l.18-.06c-.7.81-1,1.91-.98,2.99.06,3.47,3.03,5.78,5.74,7.51,3.58,2.33,8.05,4.66,12.37,3.24,4.53-1.55,6.81-6.6,3.09-10.29-2.79-3.01-8.53-5.52-7.15-10.51,1.45-4.62,6.75-5.67,10.23-8.23,1.82-1.31,2.83-3.41,3.32-5.56.97-4.12,1.03-9.7,5.71-11.48,2.07-.89,4.34-1.14,6.35-2.1,4.81-2.16,3.45-7.9,1.83-11.77,1.53-1.13,3.58-1.51,5.41-.99-1.83-.51-3.88-.12-5.39,1.02,1.71,3.8,3.02,9.67-1.8,11.85-2.97,1.45-6.76,1.38-8.98,4.07-2.85,3.6-1.86,8.7-4.08,12.61-.54.99-1.32,1.85-2.21,2.54-3.46,2.58-8.67,3.56-10.12,8.12-1.29,4.91,4.36,7.22,7.11,10.24,3.89,3.86,1.54,9.14-3.19,10.78-4.46,1.48-9-.88-12.67-3.24-2.75-1.73-5.88-4.2-5.92-7.79-.03-1.18.32-2.42,1.13-3.33,0,0,.11.02.11.02,3.57.65,4.88,6.01,8.82,5.36,3.76-1,4.15-5.45,6.5-8.09,1.47-1.91,5.32-2.43,6.36.16,0,0,.03.1.03.1-.78.91-1.99,1.33-3.14,1.35-3.45.16-6-2.69-9-3.78-4.07-1.46-8.96.34-11.37,3.9-2.56,3.62-1.61,8.73,1.17,11.96,2.74,3.44,7.46,4.77,11.7,3.9,8.99-1.55,14.08-10.89,14.18-19.44.18-4.34-.43-8.78.69-13.05,1.12-4.07,4.41-8.35,9-8.25h0Z"/>
      <path class="cls-1" d="M39.22,87.29c-1.37,4.44-6.26,6.56-10.56,6.96-6.56.59-13.67-1.75-19.68,1.8-7.12,4.02-5.04,12.28,1.12,16.07,5.67,3.67,13.22,3.41,18.97.03,3.91-2.15,7.36-5.06,11.4-6.99,6.16-3.28,13.35-1.56,19.61.44,0,0-.19.12-.19.12l.47-2.93.23.14c-4.52,3.16-10.46,4.12-15.76,2.63-2.69-.69-4.97-2.34-7.52-3.21-5.2-1.8-6.77,2.2-8.23,6.29-1.44,4.02-5.5,6.38-9.5,7.18-5.29,1.09-11.51.54-15.52-3.45-2.95-2.89-4.3-7.73-2.16-11.47,2.1-3.67,6.35-5.52,10.37-6.08,5.45-.69,10.92.63,16.34-.03,3.93-.53,8.08-2.28,10.15-5.84,1.1-1.76,1.02-3.9,1.52-5.86.2-.66.48-1.35,1.02-1.84,1.06-1.07,3.24-1.44,4,.17,0,0-.31-.04-.31-.04-6.57-.46-9.58,6.57-13.65,10.48-2.64,2.52-6.21,4.02-9.85,4.21-3.66.27-7.09-1.42-10.7-1.59-5.67-.41-8.85,4.42-6.1,9.42,1.85,3.18,5.77,4.38,9.27,4.35,4.85-.06,9.35-2.16,14.08-3,14.4-3.38,19.01,15.15,33.08,9.59-11.3,4.63-16.57-6.75-25.92-9.39-4.75-1.23-9.56.5-14.12,1.77-4.54,1.32-9.86,2.13-14.07-.6-4.32-2.51-5.09-10.01.19-11.87,4.77-1.76,9.48,1.42,14.27,1.05,3.58-.2,7.08-1.67,9.67-4.15,4.08-3.99,7.18-11.07,13.87-10.58,0,0-.15.23-.15.23-.77-1.15-2.51-.68-3.36.16-1.83,2.06-.9,5.34-2.48,7.63-3.79,6.3-12.05,6.59-18.59,6.04-6.44-.53-14.53-.25-18.22,5.94-2.05,3.6-.73,8.21,2.1,11.01,3.89,3.88,10,4.43,15.16,3.37,2.63-.56,5.22-1.67,7.11-3.58,3.05-2.77,2.51-8.33,6.68-10.01,4.22-1.27,7.75,2.52,11.62,3.38,5.2,1.48,11.06.54,15.5-2.56,0,0,.29-.2.29-.2-.06.3-.5,3.09-.56,3.43-4.29-1.3-8.71-2.64-13.21-2.31-6.86.48-11.98,5.6-17.76,8.75-5.82,3.4-13.47,3.65-19.2-.07-6.27-3.87-8.34-12.31-1.08-16.38,6.05-3.55,13.19-1.18,19.75-1.74,4.29-.39,9.18-2.48,10.56-6.9h0Z"/>
      <path class="cls-1" d="M33.99,99.19c2.8-4.37,8.67-1.38,12.54-.38,2.16.68,4.31,1.44,6.36,2.4,4.14,1.89,7.64,4.88,11.46,7.3,5.73,3.82,12.76,4.77,19.52,4.68,4.45-.24,9.22.29,13.41-1.46,5.54-2.45,5.27-11.28-.43-13.38-4.39-1.91-9.92-.73-13.75-4-.59-.59-1.17-1.32-1.53-2.07-.87-1.9-2.17-4.52-4.34-4.54-1.52,1-1.14,3.3-.08,4.51.56.64,1.36,1.05,2.17,1.33.82.27,1.69.4,2.56.5,3.51.25,7.02.84,10.39,1.88,3.37,1.04,6.63,2.47,9.65,4.3,1.49.94,2.93,2.09,3.84,3.66,3.42,6.09-3.24,9.92-8.7,9.49-3.57-.15-6.97-1.44-10.13-2.97-3.18-1.51-6.27-3.24-9.62-4.26-1.65-.5-3.44-.81-5.07-.27-1.6.52-3.06,2.13-2.78,3.89,0,0-.16.04-.16.04-3.84,1.05-7.93.21-11.48-1.41-3.59-1.61-6.69-4.05-9.75-6.43-3.51-2.45-10.95-9.62-14.91-5.19-.6.71-.84,1.71-.51,2.59,1.57,3.79,9.88,3.02,13.38,3.09,5.82-.21,11.67-.96,17.5-.45,1.94.2,3.88.51,5.75,1.08,5.72,1.6,10.15,5.72,15.14,8.69,4.99,2.99,10.84,4.55,16.66,4.42,3.76-.09,8.11-1.27,9.88-4.9,1.72-3.53.67-7.94-1.89-10.8-5.39-5.88-13.97-6.82-21.51-7.34,0,0-5.83-.31-5.83-.31-2.88-.24-5.92-.12-8.59-1.39-2.65-1.07-4.21-5.22-1.61-7.14-2.59,1.92-1.03,6.06,1.62,7.13,2.67,1.26,5.71,1.13,8.58,1.37,0,0,5.83.3,5.83.3,7.56.51,16.15,1.43,21.58,7.33,2.6,2.88,3.66,7.33,1.93,10.92-1.79,3.68-6.19,4.9-9.99,4.99-5.85.14-11.73-1.41-16.76-4.41-4.99-2.95-9.43-7.07-15.11-8.64-1.86-.56-3.78-.86-5.71-1.06-5.83-.49-11.64.27-17.47.49-3.73-.07-11.97.77-13.68-3.26-.38-.97-.1-2.11.55-2.88,4.18-4.67,11.68,2.55,15.36,5.11,3.07,2.38,6.15,4.79,9.69,6.37,3.48,1.59,7.47,2.4,11.22,1.37,0,0-.14.21-.14.21-.19-1.92,1.34-3.57,3.07-4.14,1.76-.57,3.63-.23,5.31.28,3.4,1.05,6.5,2.79,9.66,4.3,3.14,1.53,6.48,2.81,9.98,2.96,5.15.44,11.73-3.17,8.42-9-.86-1.5-2.26-2.63-3.73-3.56-2.99-1.82-6.23-3.25-9.58-4.29-3.36-1.04-6.83-1.64-10.34-1.9-.88-.1-1.76-.23-2.61-.51-.84-.29-1.67-.71-2.27-1.41-1.15-1.33-1.52-3.81.17-4.88,3.67.13,3.87,4.66,6.11,6.66,3.8,3.24,9.3,2.06,13.68,3.99,1.03.48,2.03,1.09,2.79,1.97,3.05,3.51,2.02,9.81-2.37,11.71-4.23,1.76-8.99,1.21-13.47,1.44-6.77.08-13.82-.89-19.56-4.73-3.83-2.43-7.31-5.42-11.44-7.32-2.05-.96-4.19-1.73-6.35-2.41-3.86-1-9.73-4.01-12.53.35h0Z"/>
      <path class="cls-1" d="M78.09,44.04c-6.94-1.5-16.42-2.31-20.49,4.85-1.49,2.87-1.73,6.38-4,8.85-2.14,2.39-5.56,4.14-8.81,3.53-.56-.16-1.13-.65-1.07-1.3.38-1.76,2.85-1.92,4.29-2.03,3.12-.07,6.7.75,9.21-1.6,3.33-2.95,3.65-7.71,5.84-11.4,2.19-3.77,6.45-6.54,10.91-6.07,2.18.21,4.33,1.11,5.87,2.7,2.97,3.16,5.42,7.02,6.07,11.38-.83,7.83-1.68,16.52,2.7,23.5-4.46-6.94-3.75-15.69-2.93-23.53-.65-4.12-3.11-8.09-6.05-11.15-1.49-1.53-3.58-2.4-5.7-2.59-4.33-.44-8.45,2.28-10.56,5.95-2.15,3.71-2.49,8.52-5.91,11.5-2.57,2.41-6.27,1.61-9.44,1.65-1.33.1-3.59.22-3.99,1.72-.04.48.37.85.86.99,3.12.57,6.45-1.12,8.51-3.42,2.25-2.44,2.48-5.92,4-8.78,4.14-7.25,13.7-6.35,20.69-4.74h0Z"/>
      <path class="cls-1" d="M43.96,93.54c-2.66-.1-3.59-3.72-1.97-5.56,2.33-3.06,6.54-2.74,9.84-3.93,3.38-1.18,6.4-3.37,8.61-6.19,1.49-1.86,2.59-4.03,3.25-6.32,1.33-4.65.43-9.59,1.55-14.29.54-2.34,1.59-4.67,3.44-6.3l.13.27c-3.66.84-5.64,4.71-6.01,8.2-.36,3.68.63,7.27,1.01,10.92.62,4.73-.61,10.87-5.69,12.59-4.14,1.45-11.15,1.09-11.45,6.87-.05,1.19.16,2.47-.28,3.69-1.11,3.38-5.09,1.99-4.81-1.23.7-3.8,4.56-5.97,7.82-7.33,4.53-1.81,9.61-2.32,13.73-5.06,4.54-2.98,6.11-7.65,3.86-12.66-1.73-4.17-4.81-9.83-1.02-13.75-1.84,1.74-1.99,4.52-1.49,6.86.73,3.62,3.13,6.7,3.63,10.39.62,3.79-1.81,7.35-4.87,9.35-6.1,4.08-14.68,3.4-19.79,9.09-.8.89-1.47,1.97-1.59,3.15-.3,1.7,1.64,3.69,3.24,2.52,2.08-1.68.65-4.66,1.56-6.87,1.92-4.38,7.52-3.98,11.3-5.35,2.3-.79,4.02-2.74,4.79-5.02,2.95-8-4.09-17.95,2.72-24.84,1.03-1.04,2.42-1.67,3.85-1.93-2.04,1.6-3.25,4.02-3.83,6.53-1.12,4.67-.24,9.63-1.59,14.29-1.34,4.66-4.57,8.68-8.75,11.11-2.09,1.21-4.42,1.94-6.8,2.32-2.31.41-4.84,1.01-6.33,2.98-1.62,1.81-.73,5.41,1.92,5.52h0Z"/>
      <path class="cls-1" d="M59.21,93.85c-1.65-3.83,1.76-7.58,5.14-8.97,3.38-1.61,7.42-2.32,9.95-5.28,0,0,.16.17.16.17l-8.28,5.68-4.13,2.84c-1.33.83-2.52,2.6-1.93,3.95,4.24,3.44,9.07-.95,13.19-2.5,4.85-1.89,9.67,1.29,13.39,4.13,0,0-.26.1-.26.1.42-1.79-.92-3.48-2.46-4.25-3.41-1.65-7.16.41-10.63.93-1.81.32-3.64.56-5.49.54-4.78.1-6.68-4.28-3.08-7.48,1.47-1.17,3.34-1.6,5.15-1.81,1.82-.21,3.67-.23,5.45-.68-3.46.94-7.55.22-10.51,2.61-1.39,1.12-2.16,3.13-1.52,4.82,2.08,4.53,11.54,1.25,15.29.46,1.8-.38,3.79-.54,5.48.34,1.75.86,3.2,2.83,2.59,4.85-2-1.48-4.04-2.96-6.33-3.9-7.12-3.17-10.58,3.54-17.08,3.44-1.24-.05-2.52-.48-3.43-1.37-.78-1.76.62-3.49,2-4.41,0,0,4.15-2.83,4.15-2.83l8.31-5.64.72-.49s-.56.66-.56.66c-2.58,2.99-6.64,3.71-10.06,5.26-3.37,1.34-6.79,5-5.2,8.83h0Z"/>
    </g>
  </g>
</svg>